<svg width="381" height="32" viewBox="0 0 381 32" fill="none" xmlns="http://www.w3.org/2000/svg">
<rect x="0.5" y="0.5" width="380" height="31" rx="15.5" fill="#F2F2F2" stroke="black"/>
<path d="M31.852 20.168C30.8533 20.168 29.948 19.9533 29.136 19.524C28.3333 19.0853 27.6987 18.4833 27.232 17.718C26.7747 16.9433 26.546 16.0707 26.546 15.1C26.546 14.1293 26.7747 13.2613 27.232 12.496C27.6987 11.7213 28.3333 11.1193 29.136 10.69C29.948 10.2513 30.858 10.032 31.866 10.032C32.7153 10.032 33.4807 10.1813 34.162 10.48C34.8527 10.7787 35.4313 11.208 35.898 11.768L34.442 13.112C33.7793 12.3467 32.958 11.964 31.978 11.964C31.3713 11.964 30.83 12.0993 30.354 12.37C29.878 12.6313 29.5047 13 29.234 13.476C28.9727 13.952 28.842 14.4933 28.842 15.1C28.842 15.7067 28.9727 16.248 29.234 16.724C29.5047 17.2 29.878 17.5733 30.354 17.844C30.83 18.1053 31.3713 18.236 31.978 18.236C32.958 18.236 33.7793 17.8487 34.442 17.074L35.898 18.418C35.4313 18.9873 34.8527 19.4213 34.162 19.72C33.4713 20.0187 32.7013 20.168 31.852 20.168ZM41.6462 12.356C42.3462 12.356 42.9809 12.5193 43.5502 12.846C44.1289 13.1633 44.5815 13.616 44.9082 14.204C45.2349 14.7827 45.3982 15.4593 45.3982 16.234C45.3982 17.0087 45.2349 17.69 44.9082 18.278C44.5815 18.8567 44.1289 19.3093 43.5502 19.636C42.9809 19.9533 42.3462 20.112 41.6462 20.112C40.6849 20.112 39.9289 19.8087 39.3782 19.202V22.716H37.1942V12.468H39.2802V13.336C39.8215 12.6827 40.6102 12.356 41.6462 12.356ZM41.2682 18.32C41.8282 18.32 42.2855 18.1333 42.6402 17.76C43.0042 17.3773 43.1862 16.8687 43.1862 16.234C43.1862 15.5993 43.0042 15.0953 42.6402 14.722C42.2855 14.3393 41.8282 14.148 41.2682 14.148C40.7082 14.148 40.2462 14.3393 39.8822 14.722C39.5275 15.0953 39.3502 15.5993 39.3502 16.234C39.3502 16.8687 39.5275 17.3773 39.8822 17.76C40.2462 18.1333 40.7082 18.32 41.2682 18.32ZM54.2509 16.262C54.2509 16.29 54.2369 16.486 54.2089 16.85H48.5109C48.6136 17.3167 48.8562 17.6853 49.2389 17.956C49.6216 18.2267 50.0976 18.362 50.6669 18.362C51.0589 18.362 51.4042 18.306 51.7029 18.194C52.0109 18.0727 52.2956 17.886 52.5569 17.634L53.7189 18.894C53.0096 19.706 51.9736 20.112 50.6109 20.112C49.7616 20.112 49.0102 19.9487 48.3569 19.622C47.7036 19.286 47.1996 18.824 46.8449 18.236C46.4902 17.648 46.3129 16.9807 46.3129 16.234C46.3129 15.4967 46.4856 14.834 46.8309 14.246C47.1856 13.6487 47.6662 13.1867 48.2729 12.86C48.8889 12.524 49.5749 12.356 50.3309 12.356C51.0682 12.356 51.7356 12.5147 52.3329 12.832C52.9302 13.1493 53.3969 13.6067 53.7329 14.204C54.0782 14.792 54.2509 15.478 54.2509 16.262ZM50.3449 14.008C49.8502 14.008 49.4349 14.148 49.0989 14.428C48.7629 14.708 48.5576 15.0907 48.4829 15.576H52.1929C52.1182 15.1 51.9129 14.722 51.5769 14.442C51.2409 14.1527 50.8302 14.008 50.3449 14.008ZM64.2986 18.208V21.624H62.2686V20H56.9766V21.624H54.9466V18.208H55.2546C55.7213 18.1987 56.0433 17.9233 56.2206 17.382C56.398 16.8407 56.51 16.0707 56.5566 15.072L56.6546 12.468H63.2206V18.208H64.2986ZM58.5306 15.226C58.5026 15.9913 58.442 16.6167 58.3486 17.102C58.2646 17.5873 58.1013 17.956 57.8586 18.208H61.0366V14.26H58.5726L58.5306 15.226ZM65.673 12.468H67.843V15.408H71.119V12.468H73.303V20H71.119V17.186H67.843V20H65.673V12.468ZM82.7158 16.262C82.7158 16.29 82.7018 16.486 82.6738 16.85H76.9758C77.0784 17.3167 77.3211 17.6853 77.7038 17.956C78.0864 18.2267 78.5624 18.362 79.1318 18.362C79.5238 18.362 79.8691 18.306 80.1678 18.194C80.4758 18.0727 80.7604 17.886 81.0218 17.634L82.1838 18.894C81.4744 19.706 80.4384 20.112 79.0758 20.112C78.2264 20.112 77.4751 19.9487 76.8218 19.622C76.1684 19.286 75.6644 18.824 75.3098 18.236C74.9551 17.648 74.7778 16.9807 74.7778 16.234C74.7778 15.4967 74.9504 14.834 75.2958 14.246C75.6504 13.6487 76.1311 13.1867 76.7378 12.86C77.3538 12.524 78.0398 12.356 78.7958 12.356C79.5331 12.356 80.2004 12.5147 80.7978 12.832C81.3951 13.1493 81.8618 13.6067 82.1978 14.204C82.5431 14.792 82.7158 15.478 82.7158 16.262ZM78.8098 14.008C78.3151 14.008 77.8998 14.148 77.5638 14.428C77.2278 14.708 77.0224 15.0907 76.9478 15.576H80.6578C80.5831 15.1 80.3778 14.722 80.0418 14.442C79.7058 14.1527 79.2951 14.008 78.8098 14.008ZM91.7118 16.262C91.7118 16.29 91.6978 16.486 91.6698 16.85H85.9718C86.0745 17.3167 86.3172 17.6853 86.6998 17.956C87.0825 18.2267 87.5585 18.362 88.1278 18.362C88.5198 18.362 88.8652 18.306 89.1638 18.194C89.4718 18.0727 89.7565 17.886 90.0178 17.634L91.1798 18.894C90.4705 19.706 89.4345 20.112 88.0718 20.112C87.2225 20.112 86.4712 19.9487 85.8178 19.622C85.1645 19.286 84.6605 18.824 84.3058 18.236C83.9512 17.648 83.7738 16.9807 83.7738 16.234C83.7738 15.4967 83.9465 14.834 84.2918 14.246C84.6465 13.6487 85.1272 13.1867 85.7338 12.86C86.3498 12.524 87.0358 12.356 87.7918 12.356C88.5292 12.356 89.1965 12.5147 89.7938 12.832C90.3912 13.1493 90.8578 13.6067 91.1938 14.204C91.5392 14.792 91.7118 15.478 91.7118 16.262ZM87.8058 14.008C87.3112 14.008 86.8958 14.148 86.5598 14.428C86.2238 14.708 86.0185 15.0907 85.9438 15.576H89.6538C89.5792 15.1 89.3738 14.722 89.0378 14.442C88.7018 14.1527 88.2912 14.008 87.8058 14.008ZM104.841 12.468V20H102.657V14.26H99.5208V20H97.3508V12.468H104.841ZM111.373 12.356C112.073 12.356 112.707 12.5193 113.277 12.846C113.855 13.1633 114.308 13.616 114.635 14.204C114.961 14.7827 115.125 15.4593 115.125 16.234C115.125 17.0087 114.961 17.69 114.635 18.278C114.308 18.8567 113.855 19.3093 113.277 19.636C112.707 19.9533 112.073 20.112 111.373 20.112C110.411 20.112 109.655 19.8087 109.105 19.202V22.716H106.921V12.468H109.007V13.336C109.548 12.6827 110.337 12.356 111.373 12.356ZM110.995 18.32C111.555 18.32 112.012 18.1333 112.367 17.76C112.731 17.3773 112.913 16.8687 112.913 16.234C112.913 15.5993 112.731 15.0953 112.367 14.722C112.012 14.3393 111.555 14.148 110.995 14.148C110.435 14.148 109.973 14.3393 109.609 14.722C109.254 15.0953 109.077 15.5993 109.077 16.234C109.077 16.8687 109.254 17.3773 109.609 17.76C109.973 18.1333 110.435 18.32 110.995 18.32ZM120.183 20.112C119.39 20.112 118.676 19.9487 118.041 19.622C117.416 19.286 116.926 18.824 116.571 18.236C116.217 17.648 116.039 16.9807 116.039 16.234C116.039 15.4873 116.217 14.82 116.571 14.232C116.926 13.644 117.416 13.1867 118.041 12.86C118.676 12.524 119.39 12.356 120.183 12.356C120.977 12.356 121.686 12.524 122.311 12.86C122.937 13.1867 123.427 13.644 123.781 14.232C124.136 14.82 124.313 15.4873 124.313 16.234C124.313 16.9807 124.136 17.648 123.781 18.236C123.427 18.824 122.937 19.286 122.311 19.622C121.686 19.9487 120.977 20.112 120.183 20.112ZM120.183 18.32C120.743 18.32 121.201 18.1333 121.555 17.76C121.919 17.3773 122.101 16.8687 122.101 16.234C122.101 15.5993 121.919 15.0953 121.555 14.722C121.201 14.3393 120.743 14.148 120.183 14.148C119.623 14.148 119.161 14.3393 118.797 14.722C118.433 15.0953 118.251 15.5993 118.251 16.234C118.251 16.8687 118.433 17.3773 118.797 17.76C119.161 18.1333 119.623 18.32 120.183 18.32ZM136.218 16.206C136.218 17.3727 135.826 18.2967 135.042 18.978C134.267 19.65 133.156 20.0373 131.71 20.14V22.716H129.708V20.14C128.261 20.0373 127.146 19.6547 126.362 18.992C125.587 18.32 125.2 17.3913 125.2 16.206C125.2 15.0393 125.582 14.134 126.348 13.49C127.122 12.846 128.242 12.4727 129.708 12.37V9.612H131.71V12.37C133.156 12.4727 134.267 12.8507 135.042 13.504C135.826 14.1573 136.218 15.058 136.218 16.206ZM127.314 16.206C127.314 16.878 127.505 17.396 127.888 17.76C128.27 18.124 128.877 18.3527 129.708 18.446V14.064C128.877 14.148 128.27 14.3673 127.888 14.722C127.505 15.0673 127.314 15.562 127.314 16.206ZM131.71 18.446C132.54 18.3527 133.147 18.124 133.53 17.76C133.922 17.396 134.118 16.878 134.118 16.206C134.118 15.562 133.922 15.0673 133.53 14.722C133.147 14.3673 132.54 14.148 131.71 14.064V18.446ZM145.018 16.262C145.018 16.29 145.004 16.486 144.976 16.85H139.278C139.381 17.3167 139.624 17.6853 140.006 17.956C140.389 18.2267 140.865 18.362 141.434 18.362C141.826 18.362 142.172 18.306 142.47 18.194C142.778 18.0727 143.063 17.886 143.324 17.634L144.486 18.894C143.777 19.706 142.741 20.112 141.378 20.112C140.529 20.112 139.778 19.9487 139.124 19.622C138.471 19.286 137.967 18.824 137.612 18.236C137.258 17.648 137.08 16.9807 137.08 16.234C137.08 15.4967 137.253 14.834 137.598 14.246C137.953 13.6487 138.434 13.1867 139.04 12.86C139.656 12.524 140.342 12.356 141.098 12.356C141.836 12.356 142.503 12.5147 143.1 12.832C143.698 13.1493 144.164 13.6067 144.5 14.204C144.846 14.792 145.018 15.478 145.018 16.262ZM141.112 14.008C140.618 14.008 140.202 14.148 139.866 14.428C139.53 14.708 139.325 15.0907 139.25 15.576H142.96C142.886 15.1 142.68 14.722 142.344 14.442C142.008 14.1527 141.598 14.008 141.112 14.008ZM150.277 20.112C149.474 20.112 148.751 19.9487 148.107 19.622C147.472 19.286 146.973 18.824 146.609 18.236C146.254 17.648 146.077 16.9807 146.077 16.234C146.077 15.4873 146.254 14.82 146.609 14.232C146.973 13.644 147.472 13.1867 148.107 12.86C148.751 12.524 149.474 12.356 150.277 12.356C151.07 12.356 151.761 12.524 152.349 12.86C152.946 13.1867 153.38 13.658 153.651 14.274L151.957 15.184C151.565 14.4933 151 14.148 150.263 14.148C149.693 14.148 149.222 14.3347 148.849 14.708C148.475 15.0813 148.289 15.59 148.289 16.234C148.289 16.878 148.475 17.3867 148.849 17.76C149.222 18.1333 149.693 18.32 150.263 18.32C151.009 18.32 151.574 17.9747 151.957 17.284L153.651 18.208C153.38 18.8053 152.946 19.272 152.349 19.608C151.761 19.944 151.07 20.112 150.277 20.112ZM158.466 20.112C157.663 20.112 156.94 19.9487 156.296 19.622C155.661 19.286 155.162 18.824 154.798 18.236C154.443 17.648 154.266 16.9807 154.266 16.234C154.266 15.4873 154.443 14.82 154.798 14.232C155.162 13.644 155.661 13.1867 156.296 12.86C156.94 12.524 157.663 12.356 158.466 12.356C159.259 12.356 159.95 12.524 160.538 12.86C161.135 13.1867 161.569 13.658 161.84 14.274L160.146 15.184C159.754 14.4933 159.189 14.148 158.452 14.148C157.883 14.148 157.411 14.3347 157.038 14.708C156.665 15.0813 156.478 15.59 156.478 16.234C156.478 16.878 156.665 17.3867 157.038 17.76C157.411 18.1333 157.883 18.32 158.452 18.32C159.199 18.32 159.763 17.9747 160.146 17.284L161.84 18.208C161.569 18.8053 161.135 19.272 160.538 19.608C159.95 19.944 159.259 20.112 158.466 20.112ZM163.167 12.468H165.337V16.948L169.005 12.468H171.007V20H168.837V15.52L165.183 20H163.167V12.468ZM176.635 20.112C175.841 20.112 175.127 19.9487 174.493 19.622C173.867 19.286 173.377 18.824 173.023 18.236C172.668 17.648 172.491 16.9807 172.491 16.234C172.491 15.4873 172.668 14.82 173.023 14.232C173.377 13.644 173.867 13.1867 174.493 12.86C175.127 12.524 175.841 12.356 176.635 12.356C177.428 12.356 178.137 12.524 178.763 12.86C179.388 13.1867 179.878 13.644 180.233 14.232C180.587 14.82 180.765 15.4873 180.765 16.234C180.765 16.9807 180.587 17.648 180.233 18.236C179.878 18.824 179.388 19.286 178.763 19.622C178.137 19.9487 177.428 20.112 176.635 20.112ZM176.635 18.32C177.195 18.32 177.652 18.1333 178.007 17.76C178.371 17.3773 178.553 16.8687 178.553 16.234C178.553 15.5993 178.371 15.0953 178.007 14.722C177.652 14.3393 177.195 14.148 176.635 14.148C176.075 14.148 175.613 14.3393 175.249 14.722C174.885 15.0953 174.703 15.5993 174.703 16.234C174.703 16.8687 174.885 17.3773 175.249 17.76C175.613 18.1333 176.075 18.32 176.635 18.32ZM182.267 12.468H184.437V15.408H187.713V12.468H189.897V20H187.713V17.186H184.437V20H182.267V12.468ZM194.914 12.356C196.08 12.356 196.976 12.636 197.602 13.196C198.227 13.7467 198.54 14.582 198.54 15.702V20H196.496V19.062C196.085 19.762 195.32 20.112 194.2 20.112C193.621 20.112 193.117 20.014 192.688 19.818C192.268 19.622 191.946 19.3513 191.722 19.006C191.498 18.6607 191.386 18.2687 191.386 17.83C191.386 17.13 191.647 16.5793 192.17 16.178C192.702 15.7767 193.518 15.576 194.62 15.576H196.356C196.356 15.1 196.211 14.736 195.922 14.484C195.632 14.2227 195.198 14.092 194.62 14.092C194.218 14.092 193.822 14.1573 193.43 14.288C193.047 14.4093 192.72 14.5773 192.45 14.792L191.666 13.266C192.076 12.9767 192.566 12.7527 193.136 12.594C193.714 12.4353 194.307 12.356 194.914 12.356ZM194.746 18.642C195.119 18.642 195.45 18.558 195.74 18.39C196.029 18.2127 196.234 17.956 196.356 17.62V16.85H194.858C193.962 16.85 193.514 17.144 193.514 17.732C193.514 18.012 193.621 18.236 193.836 18.404C194.06 18.5627 194.363 18.642 194.746 18.642ZM207.661 12.468V20H205.477V14.26H203.097L203.027 15.59C202.989 16.5793 202.896 17.4007 202.747 18.054C202.597 18.7073 202.355 19.2207 202.019 19.594C201.683 19.9673 201.216 20.154 200.619 20.154C200.301 20.154 199.923 20.098 199.485 19.986L199.597 18.194C199.746 18.2127 199.853 18.222 199.919 18.222C200.245 18.222 200.488 18.1053 200.647 17.872C200.815 17.6293 200.927 17.326 200.983 16.962C201.039 16.5887 201.081 16.0987 201.109 15.492L201.221 12.468H207.661ZM213.835 14.876C214.815 14.8853 215.566 15.1093 216.089 15.548C216.612 15.9773 216.873 16.5887 216.873 17.382C216.873 18.2127 216.579 18.8613 215.991 19.328C215.412 19.7853 214.596 20.014 213.541 20.014L209.761 20V12.468H211.931V14.876H213.835ZM213.345 18.46C213.765 18.4693 214.087 18.3807 214.311 18.194C214.535 18.0073 214.647 17.7273 214.647 17.354C214.647 16.99 214.535 16.724 214.311 16.556C214.096 16.388 213.774 16.2993 213.345 16.29L211.931 16.276V18.46H213.345ZM218.238 12.468H220.408V15.408H223.684V12.468H225.868V20H223.684V17.186H220.408V20H218.238V12.468ZM231.486 20.112C230.693 20.112 229.979 19.9487 229.344 19.622C228.719 19.286 228.229 18.824 227.874 18.236C227.52 17.648 227.342 16.9807 227.342 16.234C227.342 15.4873 227.52 14.82 227.874 14.232C228.229 13.644 228.719 13.1867 229.344 12.86C229.979 12.524 230.693 12.356 231.486 12.356C232.28 12.356 232.989 12.524 233.614 12.86C234.24 13.1867 234.73 13.644 235.084 14.232C235.439 14.82 235.616 15.4873 235.616 16.234C235.616 16.9807 235.439 17.648 235.084 18.236C234.73 18.824 234.24 19.286 233.614 19.622C232.989 19.9487 232.28 20.112 231.486 20.112ZM231.486 18.32C232.046 18.32 232.504 18.1333 232.858 17.76C233.222 17.3773 233.404 16.8687 233.404 16.234C233.404 15.5993 233.222 15.0953 232.858 14.722C232.504 14.3393 232.046 14.148 231.486 14.148C230.926 14.148 230.464 14.3393 230.1 14.722C229.736 15.0953 229.554 15.5993 229.554 16.234C229.554 16.8687 229.736 17.3773 230.1 17.76C230.464 18.1333 230.926 18.32 231.486 18.32ZM244.44 16.262C244.44 16.29 244.426 16.486 244.398 16.85H238.7C238.803 17.3167 239.046 17.6853 239.428 17.956C239.811 18.2267 240.287 18.362 240.856 18.362C241.248 18.362 241.594 18.306 241.892 18.194C242.2 18.0727 242.485 17.886 242.746 17.634L243.908 18.894C243.199 19.706 242.163 20.112 240.8 20.112C239.951 20.112 239.2 19.9487 238.546 19.622C237.893 19.286 237.389 18.824 237.034 18.236C236.68 17.648 236.502 16.9807 236.502 16.234C236.502 15.4967 236.675 14.834 237.02 14.246C237.375 13.6487 237.856 13.1867 238.462 12.86C239.078 12.524 239.764 12.356 240.52 12.356C241.258 12.356 241.925 12.5147 242.522 12.832C243.12 13.1493 243.586 13.6067 243.922 14.204C244.268 14.792 244.44 15.478 244.44 16.262ZM240.534 14.008C240.04 14.008 239.624 14.148 239.288 14.428C238.952 14.708 238.747 15.0907 238.672 15.576H242.382C242.308 15.1 242.102 14.722 241.766 14.442C241.43 14.1527 241.02 14.008 240.534 14.008ZM253.607 20.112C252.814 20.112 252.1 19.9487 251.465 19.622C250.84 19.286 250.35 18.824 249.995 18.236C249.641 17.648 249.463 16.9807 249.463 16.234C249.463 15.4873 249.641 14.82 249.995 14.232C250.35 13.644 250.84 13.1867 251.465 12.86C252.1 12.524 252.814 12.356 253.607 12.356C254.401 12.356 255.11 12.524 255.735 12.86C256.361 13.1867 256.851 13.644 257.205 14.232C257.56 14.82 257.737 15.4873 257.737 16.234C257.737 16.9807 257.56 17.648 257.205 18.236C256.851 18.824 256.361 19.286 255.735 19.622C255.11 19.9487 254.401 20.112 253.607 20.112ZM253.607 18.32C254.167 18.32 254.625 18.1333 254.979 17.76C255.343 17.3773 255.525 16.8687 255.525 16.234C255.525 15.5993 255.343 15.0953 254.979 14.722C254.625 14.3393 254.167 14.148 253.607 14.148C253.047 14.148 252.585 14.3393 252.221 14.722C251.857 15.0953 251.675 15.5993 251.675 16.234C251.675 16.8687 251.857 17.3773 252.221 17.76C252.585 18.1333 253.047 18.32 253.607 18.32ZM263.593 12.986C264.312 12.986 264.942 13.1353 265.483 13.434C266.025 13.7233 266.44 14.134 266.729 14.666C267.028 15.198 267.177 15.814 267.177 16.514C267.177 17.2327 267 17.872 266.645 18.432C266.3 18.9827 265.815 19.412 265.189 19.72C264.564 20.0187 263.855 20.168 263.061 20.168C261.745 20.168 260.709 19.748 259.953 18.908C259.207 18.0587 258.833 16.8173 258.833 15.184C258.833 13.672 259.16 12.468 259.813 11.572C260.476 10.6667 261.489 10.074 262.851 9.794L266.435 9.08L266.729 10.956L263.565 11.586C262.707 11.754 262.067 12.034 261.647 12.426C261.237 12.818 260.994 13.3733 260.919 14.092C261.246 13.7373 261.638 13.4667 262.095 13.28C262.553 13.084 263.052 12.986 263.593 12.986ZM263.075 18.474C263.635 18.474 264.083 18.292 264.419 17.928C264.765 17.564 264.937 17.102 264.937 16.542C264.937 15.9727 264.765 15.52 264.419 15.184C264.083 14.848 263.635 14.68 263.075 14.68C262.506 14.68 262.049 14.848 261.703 15.184C261.358 15.52 261.185 15.9727 261.185 16.542C261.185 17.1113 261.363 17.578 261.717 17.942C262.072 18.2967 262.525 18.474 263.075 18.474ZM273.097 12.356C273.797 12.356 274.432 12.5193 275.001 12.846C275.58 13.1633 276.033 13.616 276.359 14.204C276.686 14.7827 276.849 15.4593 276.849 16.234C276.849 17.0087 276.686 17.69 276.359 18.278C276.033 18.8567 275.58 19.3093 275.001 19.636C274.432 19.9533 273.797 20.112 273.097 20.112C272.136 20.112 271.38 19.8087 270.829 19.202V22.716H268.645V12.468H270.731V13.336C271.273 12.6827 272.061 12.356 273.097 12.356ZM272.719 18.32C273.279 18.32 273.737 18.1333 274.091 17.76C274.455 17.3773 274.637 16.8687 274.637 16.234C274.637 15.5993 274.455 15.0953 274.091 14.722C273.737 14.3393 273.279 14.148 272.719 14.148C272.159 14.148 271.697 14.3393 271.333 14.722C270.979 15.0953 270.801 15.5993 270.801 16.234C270.801 16.8687 270.979 17.3773 271.333 17.76C271.697 18.1333 272.159 18.32 272.719 18.32ZM281.183 12.356C282.35 12.356 283.246 12.636 283.871 13.196C284.496 13.7467 284.809 14.582 284.809 15.702V20H282.765V19.062C282.354 19.762 281.589 20.112 280.469 20.112C279.89 20.112 279.386 20.014 278.957 19.818C278.537 19.622 278.215 19.3513 277.991 19.006C277.767 18.6607 277.655 18.2687 277.655 17.83C277.655 17.13 277.916 16.5793 278.439 16.178C278.971 15.7767 279.788 15.576 280.889 15.576H282.625C282.625 15.1 282.48 14.736 282.191 14.484C281.902 14.2227 281.468 14.092 280.889 14.092C280.488 14.092 280.091 14.1573 279.699 14.288C279.316 14.4093 278.99 14.5773 278.719 14.792L277.935 13.266C278.346 12.9767 278.836 12.7527 279.405 12.594C279.984 12.4353 280.576 12.356 281.183 12.356ZM281.015 18.642C281.388 18.642 281.72 18.558 282.009 18.39C282.298 18.2127 282.504 17.956 282.625 17.62V16.85H281.127C280.231 16.85 279.783 17.144 279.783 17.732C279.783 18.012 279.89 18.236 280.105 18.404C280.329 18.5627 280.632 18.642 281.015 18.642ZM291.524 16.08C291.972 16.22 292.317 16.4347 292.56 16.724C292.812 17.0133 292.938 17.3587 292.938 17.76C292.938 18.236 292.775 18.656 292.448 19.02C292.121 19.3747 291.673 19.65 291.104 19.846C290.535 20.042 289.891 20.14 289.172 20.14C288.584 20.14 288.005 20.0793 287.436 19.958C286.867 19.8367 286.339 19.6547 285.854 19.412L286.442 17.886C287.235 18.2687 288.113 18.46 289.074 18.46C289.587 18.46 289.989 18.3853 290.278 18.236C290.577 18.0773 290.726 17.858 290.726 17.578C290.726 17.3353 290.623 17.1533 290.418 17.032C290.213 16.9013 289.914 16.836 289.522 16.836H287.982V15.478H289.326C289.709 15.478 290.003 15.4173 290.208 15.296C290.413 15.1747 290.516 14.9973 290.516 14.764C290.516 14.5213 290.385 14.3347 290.124 14.204C289.872 14.0733 289.508 14.008 289.032 14.008C288.304 14.008 287.511 14.1807 286.652 14.526L286.12 13.014C287.165 12.5567 288.183 12.328 289.172 12.328C289.853 12.328 290.46 12.412 290.992 12.58C291.533 12.748 291.958 12.9953 292.266 13.322C292.574 13.6393 292.728 14.0127 292.728 14.442C292.728 14.7967 292.621 15.1187 292.406 15.408C292.191 15.688 291.897 15.912 291.524 16.08ZM298.055 20.112C297.261 20.112 296.547 19.9487 295.913 19.622C295.287 19.286 294.797 18.824 294.443 18.236C294.088 17.648 293.911 16.9807 293.911 16.234C293.911 15.4873 294.088 14.82 294.443 14.232C294.797 13.644 295.287 13.1867 295.913 12.86C296.547 12.524 297.261 12.356 298.055 12.356C298.848 12.356 299.557 12.524 300.183 12.86C300.808 13.1867 301.298 13.644 301.653 14.232C302.007 14.82 302.185 15.4873 302.185 16.234C302.185 16.9807 302.007 17.648 301.653 18.236C301.298 18.824 300.808 19.286 300.183 19.622C299.557 19.9487 298.848 20.112 298.055 20.112ZM298.055 18.32C298.615 18.32 299.072 18.1333 299.427 17.76C299.791 17.3773 299.973 16.8687 299.973 16.234C299.973 15.5993 299.791 15.0953 299.427 14.722C299.072 14.3393 298.615 14.148 298.055 14.148C297.495 14.148 297.033 14.3393 296.669 14.722C296.305 15.0953 296.123 15.5993 296.123 16.234C296.123 16.8687 296.305 17.3773 296.669 17.76C297.033 18.1333 297.495 18.32 298.055 18.32ZM309.441 16.066C310.327 16.3647 310.771 16.962 310.771 17.858C310.771 18.5393 310.514 19.0667 310.001 19.44C309.487 19.8133 308.722 20 307.705 20H303.687V12.468H307.537C308.479 12.468 309.217 12.6407 309.749 12.986C310.281 13.322 310.547 13.798 310.547 14.414C310.547 14.7873 310.449 15.1187 310.253 15.408C310.066 15.688 309.795 15.9073 309.441 16.066ZM305.689 15.562H307.341C308.106 15.562 308.489 15.2913 308.489 14.75C308.489 14.218 308.106 13.952 307.341 13.952H305.689V15.562ZM307.523 18.516C308.325 18.516 308.727 18.2407 308.727 17.69C308.727 17.4007 308.633 17.1907 308.447 17.06C308.26 16.92 307.966 16.85 307.565 16.85H305.689V18.516H307.523ZM315.322 12.356C316.488 12.356 317.384 12.636 318.01 13.196C318.635 13.7467 318.948 14.582 318.948 15.702V20H316.904V19.062C316.493 19.762 315.728 20.112 314.608 20.112C314.029 20.112 313.525 20.014 313.096 19.818C312.676 19.622 312.354 19.3513 312.13 19.006C311.906 18.6607 311.794 18.2687 311.794 17.83C311.794 17.13 312.055 16.5793 312.578 16.178C313.11 15.7767 313.926 15.576 315.028 15.576H316.764C316.764 15.1 316.619 14.736 316.33 14.484C316.04 14.2227 315.606 14.092 315.028 14.092C314.626 14.092 314.23 14.1573 313.838 14.288C313.455 14.4093 313.128 14.5773 312.858 14.792L312.074 13.266C312.484 12.9767 312.974 12.7527 313.544 12.594C314.122 12.4353 314.715 12.356 315.322 12.356ZM315.154 18.642C315.527 18.642 315.858 18.558 316.148 18.39C316.437 18.2127 316.642 17.956 316.764 17.62V16.85H315.266C314.37 16.85 313.922 17.144 313.922 17.732C313.922 18.012 314.029 18.236 314.244 18.404C314.468 18.5627 314.771 18.642 315.154 18.642ZM320.845 12.468H323.015V15.408H326.291V12.468H328.475V20H326.291V17.186H323.015V20H320.845V12.468ZM330.566 12.468H332.736V16.948L336.404 12.468H338.406V20H336.236V15.52L332.582 20H330.566V12.468ZM347.827 16.262C347.827 16.29 347.813 16.486 347.785 16.85H342.087C342.19 17.3167 342.432 17.6853 342.815 17.956C343.198 18.2267 343.674 18.362 344.243 18.362C344.635 18.362 344.98 18.306 345.279 18.194C345.587 18.0727 345.872 17.886 346.133 17.634L347.295 18.894C346.586 19.706 345.55 20.112 344.187 20.112C343.338 20.112 342.586 19.9487 341.933 19.622C341.28 19.286 340.776 18.824 340.421 18.236C340.066 17.648 339.889 16.9807 339.889 16.234C339.889 15.4967 340.062 14.834 340.407 14.246C340.762 13.6487 341.242 13.1867 341.849 12.86C342.465 12.524 343.151 12.356 343.907 12.356C344.644 12.356 345.312 12.5147 345.909 12.832C346.506 13.1493 346.973 13.6067 347.309 14.204C347.654 14.792 347.827 15.478 347.827 16.262ZM343.921 14.008C343.426 14.008 343.011 14.148 342.675 14.428C342.339 14.708 342.134 15.0907 342.059 15.576H345.769C345.694 15.1 345.489 14.722 345.153 14.442C344.817 14.1527 344.406 14.008 343.921 14.008Z" fill="black"/>
</svg>
